<?xml version="1.0" encoding="UTF-8" standalone="no"?>
<!DOCTYPE svg PUBLIC "-//W3C//DTD SVG 1.1//EN" "http://www.w3.org/Graphics/SVG/1.1/DTD/svg11.dtd">
<!-- Created with Vectornator (http://vectornator.io/) -->
<svg height="128.0px" stroke-miterlimit="10" style="fill-rule:nonzero;clip-rule:evenodd;stroke-linecap:round;stroke-linejoin:round;" version="1.1" viewBox="0 0 128 128" width="128.0px" xml:space="preserve" xmlns="http://www.w3.org/2000/svg" xmlns:xlink="http://www.w3.org/1999/xlink">
<defs/>
<g id="Слой-1">
<path d="M7.10543e-15 7.10543e-15L128 7.10543e-15L128 128L7.10543e-15 128L7.10543e-15 7.10543e-15Z" fill="#6a3dea" fill-rule="nonzero" opacity="1" stroke="none"/>
<g fill="#ffffff" opacity="1" stroke="none">
<path d="M34.9046 69.7323C35.6475 69.7323 36.258 69.6551 36.7361 69.5006C37.5894 69.2137 38.2882 68.662 38.8325 67.8456C39.2665 67.1909 39.5791 66.3524 39.7703 65.3299C39.8807 64.7194 39.9358 64.153 39.9358 63.6307C39.9358 61.6226 39.5368 60.0632 38.7387 58.9525C37.9406 57.8418 36.6552 57.2865 34.8825 57.2865L30.9876 57.2865L30.9876 69.7323L34.9046 69.7323ZM28.7809 55.3997L35.3459 55.3997C37.5747 55.3997 39.3033 56.1905 40.5317 57.7719C41.6277 59.1989 42.1757 61.0268 42.1757 63.2556C42.1757 64.9768 41.852 66.5326 41.2047 67.9228C40.0646 70.3796 38.1043 71.608 35.3238 71.608L28.7809 71.608L28.7809 55.3997Z"/>
<path d="M45.2099 55.3997L57.0268 55.3997L57.0268 57.3858L47.3504 57.3858L47.3504 62.3067L56.2986 62.3067L56.2986 64.1824L47.3504 64.1824L47.3504 69.6771L57.1923 69.6771L57.1923 71.608L45.2099 71.608L45.2099 55.3997Z"/>
<path d="M60.2817 55.3997L71.5249 55.3997L71.5249 57.3858L62.4774 57.3858L62.4774 62.3067L70.4326 62.3067L70.4326 64.2376L62.4774 64.2376L62.4774 71.608L60.2817 71.608L60.2817 55.3997Z"/>
<path d="M76.2583 55.3997L76.2583 65.4182C76.2583 66.5951 76.4789 67.5734 76.9203 68.3531C77.5749 69.53 78.6783 70.1185 80.2303 70.1185C82.0913 70.1185 83.3565 69.4822 84.0259 68.2097C84.3863 67.5182 84.5665 66.5877 84.5665 65.4182L84.5665 55.3997L86.7953 55.3997L86.7953 64.5024C86.7953 66.4958 86.5268 68.0294 85.9898 69.1034C85.0042 71.06 83.1432 72.0383 80.4069 72.0383C77.6706 72.0383 75.8132 71.06 74.8349 69.1034C74.298 68.0294 74.0295 66.4958 74.0295 64.5024L74.0295 55.3997L76.2583 55.3997Z"/>
<path d="M90.1936 55.3997L92.3893 55.3997L92.3893 69.6771L100.598 69.6771L100.598 71.608L90.1936 71.608L90.1936 55.3997Z"/>
</g>
</g>
</svg>
